<?xml version="1.0" encoding="UTF-8" standalone="no"?>
<!-- Created with Inkscape (http://www.inkscape.org/) -->

<svg
   version="1.1"
   id="svg1"
   width="53"
   height="53"
   viewBox="0 0 53 53"
   xmlns="http://www.w3.org/2000/svg"
   xmlns:svg="http://www.w3.org/2000/svg">
  <defs
     id="defs1" />
  <g
     id="g137"
     transform="matrix(0.48801155,0,0,0.48801155,-95.157399,-126.30004)"
     style="display:inline">
    <g
       id="g124"
       transform="matrix(0.38185617,0,0,0.38185617,56.483232,161.13878)"
       style="display:inline">
      <path
         id="path124"
         style="fill:#91d5ff;fill-opacity:1;stroke:#4a90e2;stroke-width:10.4751"
         d="M 435.09909,505.99384 392.99487,372.54462 506.90359,291.26346 619.40625,374.47675 575.02924,507.1868 Z" />
    </g>
    <g
       id="g138"
       style="stroke-width:6.1474;stroke-dasharray:none">
      <line
         x1="293.00204"
         y1="304.32098"
         x2="276.0564"
         y2="354.99713"
         id="line124"
         style="fill:none;stroke:#e1edfa;stroke-width:8.22726;stroke-dasharray:none;stroke-opacity:1" />
      <line
         x1="293.00204"
         y1="304.32098"
         x2="222.62321"
         y2="354.5416"
         id="line125"
         style="fill:none;stroke:#e1edfa;stroke-width:8.22726;stroke-dasharray:none;stroke-opacity:1" />
      <line
         x1="293.00204"
         y1="304.32098"
         x2="206.54546"
         y2="303.58319"
         id="line126"
         style="fill:none;stroke:#e1edfa;stroke-width:8.22726;stroke-dasharray:none;stroke-opacity:1" />
      <line
         x1="293.00204"
         y1="304.32098"
         x2="250.04221"
         y2="272.54547"
         id="line127"
         style="fill:none;stroke:#e1edfa;stroke-width:8.22726;stroke-dasharray:none;stroke-opacity:1" />
      <line
         x1="276.0564"
         y1="354.99713"
         x2="222.62321"
         y2="354.5416"
         id="line128"
         style="fill:none;stroke:#e1edfa;stroke-width:8.22726;stroke-dasharray:none;stroke-opacity:1" />
      <line
         x1="276.0564"
         y1="354.99713"
         x2="206.54546"
         y2="303.58319"
         id="line129"
         style="fill:none;stroke:#e1edfa;stroke-width:8.22726;stroke-dasharray:none;stroke-opacity:1" />
      <line
         x1="276.0564"
         y1="354.99713"
         x2="250.04221"
         y2="272.54547"
         id="line130"
         style="fill:none;stroke:#e1edfa;stroke-width:8.22726;stroke-dasharray:none;stroke-opacity:1" />
      <line
         x1="222.62321"
         y1="354.5416"
         x2="206.54546"
         y2="303.58319"
         id="line131"
         style="fill:none;stroke:#e1edfa;stroke-width:8.22726;stroke-dasharray:none;stroke-opacity:1" />
      <line
         x1="222.62321"
         y1="354.5416"
         x2="250.04221"
         y2="272.54547"
         id="line132"
         style="fill:none;stroke:#e1edfa;stroke-width:8.22726;stroke-dasharray:none;stroke-opacity:1" />
      <line
         x1="206.54546"
         y1="303.58319"
         x2="250.04221"
         y2="272.54547"
         id="line133"
         style="fill:none;stroke:#e1edfa;stroke-width:8.22726;stroke-dasharray:none;stroke-opacity:1" />
      <path
         id="circle133"
         style="fill:#4a90e2;stroke:#e1edfa;stroke-width:4.15359;stroke-dasharray:none;stroke-opacity:1"
         transform="rotate(-17.51091)"
         d="m 195.85789,378.37927 a 8,8 0 0 1 -8,8 8,8 0 0 1 -8,-8 8,8 0 0 1 8,-8 8,8 0 0 1 8,8 z" />
      <path
         id="circle134"
         style="fill:#4a90e2;stroke:#e1edfa;stroke-width:4.15359;stroke-dasharray:none;stroke-opacity:1"
         transform="rotate(-17.51091)"
         d="m 164.44971,421.60837 a 8,8 0 0 1 -8,8 8,8 0 0 1 -8,-8 8,8 0 0 1 8,-8 8,8 0 0 1 8,8 z" />
      <path
         id="circle135"
         style="fill:#4a90e2;stroke:#e1edfa;stroke-width:4.15359;stroke-dasharray:none;stroke-opacity:1"
         transform="rotate(-17.51091)"
         d="m 113.62971,405.09659 a 8,8 0 0 1 -8,8 8,8 0 0 1 -8.000003,-8 8,8 0 0 1 8.000003,-8 8,8 0 0 1 8,8 z" />
      <path
         id="circle136"
         style="fill:#4a90e2;stroke:#e1edfa;stroke-width:4.15359;stroke-dasharray:none;stroke-opacity:1"
         transform="rotate(-17.51091)"
         d="m 113.62971,351.66202 a 8,8 0 0 1 -8,8 8,8 0 0 1 -8.000003,-8 8,8 0 0 1 8.000003,-8 8,8 0 0 1 8,8 z" />
      <path
         id="circle137"
         style="fill:#4a90e2;stroke:#e1edfa;stroke-width:4.15359;stroke-dasharray:none;stroke-opacity:1"
         transform="rotate(-17.51091)"
         d="m 164.44971,335.15018 a 8,8 0 0 1 -8,8 8,8 0 0 1 -8,-8 8,8 0 0 1 8,-8 8,8 0 0 1 8,8 z" />
    </g>
    <g
       id="g151"
       style="display:inline">
      <line
         x1="293.00204"
         y1="304.32098"
         x2="276.0564"
         y2="354.99713"
         id="line138"
         style="fill:none;stroke:#4a90e2;stroke-width:4;stroke-dasharray:none" />
      <line
         x1="293.00204"
         y1="304.32098"
         x2="222.62321"
         y2="354.5416"
         id="line139"
         style="fill:none;stroke:#4a90e2;stroke-width:4;stroke-dasharray:none" />
      <line
         x1="293.00204"
         y1="304.32098"
         x2="206.54546"
         y2="303.58319"
         id="line140"
         style="fill:none;stroke:#4a90e2;stroke-width:4;stroke-dasharray:none" />
      <line
         x1="293.00204"
         y1="304.32098"
         x2="250.04221"
         y2="272.54547"
         id="line141"
         style="fill:none;stroke:#4a90e2;stroke-width:4;stroke-dasharray:none" />
      <line
         x1="276.0564"
         y1="354.99713"
         x2="222.62321"
         y2="354.5416"
         id="line142"
         style="fill:none;stroke:#4a90e2;stroke-width:4;stroke-dasharray:none" />
      <line
         x1="276.0564"
         y1="354.99713"
         x2="206.54546"
         y2="303.58319"
         id="line143"
         style="fill:none;stroke:#4a90e2;stroke-width:4;stroke-dasharray:none" />
      <line
         x1="276.0564"
         y1="354.99713"
         x2="250.04221"
         y2="272.54547"
         id="line144"
         style="fill:none;stroke:#4a90e2;stroke-width:4;stroke-dasharray:none" />
      <line
         x1="222.62321"
         y1="354.5416"
         x2="206.54546"
         y2="303.58319"
         id="line145"
         style="fill:none;stroke:#4a90e2;stroke-width:4;stroke-dasharray:none" />
      <line
         x1="222.62321"
         y1="354.5416"
         x2="250.04221"
         y2="272.54547"
         id="line146"
         style="fill:none;stroke:#4a90e2;stroke-width:4;stroke-dasharray:none" />
      <line
         x1="206.54546"
         y1="303.58319"
         x2="250.04221"
         y2="272.54547"
         id="line147"
         style="fill:none;stroke:#4a90e2;stroke-width:4;stroke-dasharray:none" />
      <circle
         cx="187.85789"
         cy="378.37927"
         fill="#4a90e2"
         id="circle147"
         transform="rotate(-17.51091)"
         style="stroke-width:0.909;stroke-dasharray:none"
         r="8" />
      <circle
         cx="156.44971"
         cy="421.60837"
         fill="#4a90e2"
         id="circle148"
         transform="rotate(-17.51091)"
         style="stroke-width:0.909;stroke-dasharray:none"
         r="8" />
      <circle
         cx="105.62971"
         cy="405.09659"
         fill="#4a90e2"
         id="circle149"
         transform="rotate(-17.51091)"
         style="stroke-width:0.909;stroke-dasharray:none"
         r="8" />
      <circle
         cx="105.62971"
         cy="351.66202"
         fill="#4a90e2"
         id="circle150"
         transform="rotate(-17.51091)"
         style="stroke-width:0.909;stroke-dasharray:none"
         r="8" />
      <circle
         cx="156.44971"
         cy="335.15018"
         fill="#4a90e2"
         id="circle151"
         transform="rotate(-17.51091)"
         style="stroke-width:0.909;stroke-dasharray:none"
         r="8" />
    </g>
  </g>
</svg>
